<svg xmlns="http://www.w3.org/2000/svg" viewBox="510.325 274.668 192.153 45.941"><path fill="#5698FF" fill-rule="nonzero" d="M528.455,305.007L519.390,305.007L519.390,292.797L510.325,292.797L510.325,305.007L510.325,314.072L519.390,314.072L528.455,314.072L528.455,320.609L537.520,320.609L537.520,314.072L537.520,307.659L537.520,292.797L528.455,292.797L528.455,305.007"/><path fill="#5698FF" fill-rule="nonzero" d="M510.325,274.668H537.520V283.733H510.325Z"/><path fill="#000000" fill-rule="nonzero" d="M574.312,292.995L574.312,317.951L569.713,317.951L569.713,308.539C567.360,309.418 565.126,309.859 563.010,309.859C559.825,309.859 557.372,309.091 555.649,307.558C553.926,306.026 553.064,303.822 553.064,300.945L553.064,292.995L557.664,292.995L557.664,300.446C557.664,302.205 558.174,303.548 559.197,304.474C560.218,305.401 561.680,305.865 563.582,305.865C565.743,305.865 567.788,305.426 569.713,304.546L569.713,292.995L574.312,292.995"/><path fill="#000000" fill-rule="nonzero" d="M581.335,292.995L585.899,292.995L585.899,310.714L599.302,292.995L603.618,292.995L603.618,317.951L599.054,317.951L599.054,300.268L585.649,317.951L581.335,317.951L581.335,292.995"/><path fill="#000000" fill-rule="nonzero" d="M615.258,316.650C613.225,315.545 611.633,314.017 610.480,312.068C609.328,310.120 608.752,307.922 608.752,305.472C608.752,303.026 609.333,300.826 610.499,298.878C611.663,296.929 613.261,295.402 615.293,294.296C617.325,293.191 619.601,292.639 622.120,292.639C624.165,292.639 626.030,292.995 627.717,293.708C629.405,294.422 630.830,295.455 631.996,296.810L629.001,299.626C627.194,297.678 624.973,296.702 622.334,296.702C620.623,296.702 619.090,297.077 617.736,297.826C616.380,298.575 615.322,299.615 614.562,300.945C613.802,302.277 613.422,303.786 613.422,305.472C613.422,307.160 613.802,308.670 614.562,310.001C615.322,311.332 616.380,312.371 617.736,313.120C619.090,313.869 620.623,314.244 622.334,314.244C624.973,314.244 627.194,313.257 629.001,311.284L631.996,314.136C630.830,315.492 629.399,316.524 627.700,317.238C626.000,317.951 624.128,318.307 622.084,318.307C619.565,318.307 617.290,317.755 615.258,316.650"/><path fill="#000000" fill-rule="nonzero" d="M654.134,296.916L645.863,296.916L645.863,317.951L641.264,317.951L641.264,296.916L633.028,296.916L633.028,292.995L654.134,292.995L654.134,296.916"/><path fill="#000000" fill-rule="nonzero" d="M676.844,314.065L676.844,317.951L658.126,317.951L658.126,292.995L676.344,292.995L676.344,296.881L662.761,296.881L662.761,303.370L674.811,303.370L674.811,307.184L662.761,307.184L662.761,314.065L676.844,314.065"/><path fill="#000000" fill-rule="nonzero" d="M684.617,292.995L690.499,301.337L696.381,292.995L701.801,292.995L693.422,304.973L702.478,317.951L696.988,317.951L690.499,308.859L684.047,317.951L678.699,317.951L687.718,305.152L679.269,292.995L684.617,292.995"/></svg>